<svg xmlns="http://www.w3.org/2000/svg" width="30" height="30" viewBox="0 0 30 30">
  <path id="Icon_simple-email" data-name="Icon simple-email" d="M31.65,13.846A14.137,14.137,0,0,1,31.1,17.2a9.286,9.286,0,0,1-1.439,2.947,7.338,7.338,0,0,1-2.439,2.094,7.45,7.45,0,0,1-3.562.8,5.591,5.591,0,0,1-2.576-.572,4.215,4.215,0,0,1-1.741-1.618,5.719,5.719,0,0,1-4.668,2.126,5.208,5.208,0,0,1-2.328-.516A4.7,4.7,0,0,1,10.6,20.989a6.171,6.171,0,0,1-1.013-2.3,9.019,9.019,0,0,1-.132-3,12.9,12.9,0,0,1,1.009-3.678,9.865,9.865,0,0,1,1.865-2.818,7.706,7.706,0,0,1,5.681-2.424,10.664,10.664,0,0,1,1.865.144,8.228,8.228,0,0,1,1.447.394,8.131,8.131,0,0,1,1.2.574c.366.214.734.435,1.1.66l-.905,9.448a2.853,2.853,0,0,0,.027,1.106,1.5,1.5,0,0,0,.372.682,1.36,1.36,0,0,0,.6.356,2.421,2.421,0,0,0,2.121-.379,4.192,4.192,0,0,0,1.137-1.312,7.947,7.947,0,0,0,.765-1.972,12.337,12.337,0,0,0,.335-2.456,14.282,14.282,0,0,0-.426-4.589A8.793,8.793,0,0,0,25.776,5.87a8.675,8.675,0,0,0-3.357-2.287,13.293,13.293,0,0,0-4.891-.812,11.737,11.737,0,0,0-4.837.956A10.991,10.991,0,0,0,9.015,6.378a12.418,12.418,0,0,0-2.406,3.987A16.488,16.488,0,0,0,5.6,15.333,15.043,15.043,0,0,0,6.112,20.4a8.882,8.882,0,0,0,2.042,3.633,8.584,8.584,0,0,0,3.461,2.182,14.508,14.508,0,0,0,4.775.724,17.975,17.975,0,0,0,3.134-.306c.517-.094,1.007-.206,1.474-.33a11.862,11.862,0,0,0,1.269-.412l.655,2.673a7.6,7.6,0,0,1-1.42.637,14.764,14.764,0,0,1-1.679.441A17.994,17.994,0,0,1,16.318,30a20.108,20.108,0,0,1-6.392-.934,11.924,11.924,0,0,1-4.66-2.778A11.415,11.415,0,0,1,2.47,21.7a17.843,17.843,0,0,1-.781-6.368A17.855,17.855,0,0,1,3.032,9.221,14.938,14.938,0,0,1,6.269,4.366a14.811,14.811,0,0,1,4.939-3.2A16.841,16.841,0,0,1,17.6,0a17.621,17.621,0,0,1,6.2,1.007,12.133,12.133,0,0,1,4.474,2.831A11.355,11.355,0,0,1,30.93,8.211,15.255,15.255,0,0,1,31.65,13.846ZM13.9,15.683a5.827,5.827,0,0,0,.364,3.163,1.885,1.885,0,0,0,1.8,1.069,2.169,2.169,0,0,0,.616-.1,2.254,2.254,0,0,0,.709-.386,3.536,3.536,0,0,0,.719-.787,5.79,5.79,0,0,0,.662-1.331l.707-7.341a4.633,4.633,0,0,0-1.1-.131,4.125,4.125,0,0,0-1.83.381,3.5,3.5,0,0,0-1.3,1.117,6.252,6.252,0,0,0-.86,1.837,14.277,14.277,0,0,0-.488,2.512Z" transform="translate(-1.67)" fill="#fff"/>
</svg>
